<svg width="30" height="36" viewBox="0 0 30 36" fill="none" xmlns="http://www.w3.org/2000/svg">
<path d="M28.3684 15.0292C28.3684 25.4269 14.9999 34.3392 14.9999 34.3392C14.9999 34.3392 1.63147 25.4269 1.63147 15.0292C1.63147 11.4837 3.03993 8.08337 5.547 5.5763C8.05407 3.06923 11.4544 1.66077 14.9999 1.66077C18.5455 1.66077 21.9458 3.06923 24.4529 5.5763C26.9599 8.08337 28.3684 11.4837 28.3684 15.0292Z" stroke="#0F0F0F" stroke-width="2.5" stroke-linecap="round" stroke-linejoin="round"/>
<path d="M15 19.4854C17.461 19.4854 19.4561 17.4903 19.4561 15.0293C19.4561 12.5682 17.461 10.5731 15 10.5731C12.5389 10.5731 10.5438 12.5682 10.5438 15.0293C10.5438 17.4903 12.5389 19.4854 15 19.4854Z" stroke="#0F0F0F" stroke-width="2.5" stroke-linecap="round" stroke-linejoin="round"/>
</svg>
