<svg width="19" height="19" fill="none" xmlns="http://www.w3.org/2000/svg"><path d="M11.48 4.287a4.023 4.023 0 013.176 3.17m-3.176-6.38a7.24 7.24 0 014.315 2.068 7.217 7.217 0 012.077 4.304m-.804 6.404v2.407a1.603 1.603 0 01-1.093 1.527 1.611 1.611 0 01-.66.078 15.932 15.932 0 01-6.939-2.463 15.663 15.663 0 01-4.824-4.815 15.862 15.862 0 01-2.468-6.958 1.602 1.602 0 01.951-1.613 1.61 1.61 0 01.649-.136h2.412a1.61 1.61 0 011.608 1.38c.102.77.29 1.527.563 2.255a1.602 1.602 0 01-.362 1.693l-1.021 1.02a12.853 12.853 0 004.824 4.814l1.021-1.019a1.609 1.609 0 011.697-.361c.73.272 1.487.46 2.259.562a1.609 1.609 0 011.383 1.629z" stroke="#000" stroke-width="1.5" stroke-linecap="round" stroke-linejoin="round"/></svg>