<svg version="1.1" id="_x33_" xmlns="http://www.w3.org/2000/svg" x="0" y="0" viewBox="0 0 120 60" xml:space="preserve"><style>.st0{fill:#663825}</style><path class="st0" d="M29.3 15.12l-.66-.82-.21-.25-.18.25-.66.9-.62.84L3.63 47.68l1.61 1.83 23.27-31.55 19.28 23.97h3.06L29.98 15.97z"/><path class="st0" d="M29.3 21.67l-.66-.82-.21-.25-.18.25-.66.9-.62.84L6.25 50.67l1.61 1.83h17.7l1.55-2.43H9.65l.83-1.12h17.35l1.55-2.43H12.27l.9-1.21h16.99l1.55-2.43H14.96l13.55-18.37 14.02 17.42h3.06L29.98 22.52z"/><path class="st0" d="M115.94 41.93H119L92.86 9.42l-.68-.85-.66-.82-.21-.25-.19.25-.66.9-.61.84L77.96 25.6 64.94 9.42l-.68-.85-.66-.82-.2-.25-.19.25-.66.9-.62.84-15.26 20.68L29.98 9.42l-.68-.85-.66-.82-.21-.25-.18.25-.66.9-.62.84L1 44.69l1.61 1.83 25.9-35.11 24.55 30.52h3.06l-2.86-3.57 10.22-13.85 14.01 17.42h3.06L64.94 22.52l-.68-.85-.66-.82-.2-.25-.19.25-.66.9-.62.84-10.22 13.85-.97-1.21 5.27-7.15 7.47-10.12 19.28 23.97h3.06L64.94 15.97l-.68-.85-.66-.82-.2-.25-.19.25-.66.9-.62.84-12.74 17.27-.98-1.22 15.27-20.68 24.54 30.52h3.07l-6.55-8.14 6.85-9.28 14.01 17.42h3.06l-15.6-19.41-.68-.85-.66-.82-.21-.25-.19.25-.66.9-.61.84L83 31.87l-.98-1.21 9.37-12.7 19.28 23.97h3.06L92.86 15.97l-.68-.85-.66-.82-.21-.25-.19.25-.66.9-.61.84-9.37 12.7-.98-1.22 11.89-16.11zm-79.5 9.92c.04.13.07.23.08.3s0 .13-.04.17c-.04.04-.11.06-.21.07-.1.01-.23.01-.41.01-.18 0-.32 0-.42-.01-.1-.01-.18-.02-.23-.03-.05-.02-.09-.04-.11-.07a.37.37 0 01-.05-.11l-.46-1.39h-2.57l-.43 1.35a.31.31 0 01-.06.13c-.02.03-.06.06-.11.08-.05.02-.12.03-.22.04-.09.01-.22.01-.37.01-.16 0-.29-.01-.38-.02a.305.305 0 01-.19-.08c-.04-.04-.05-.1-.04-.17.01-.07.04-.17.08-.3l2.11-6.12c.02-.06.05-.11.07-.15.03-.04.07-.06.13-.08s.15-.03.26-.04c.11 0 .25-.01.43-.01.21 0 .37 0 .5.01.12.01.22.02.29.04.07.02.12.05.15.09.03.04.05.09.08.16l2.12 6.12zm-3.14-5.06l-.97 2.93h1.94l-.97-2.93zm8.78.78c0 .39-.06.73-.18 1.03-.12.3-.29.55-.52.76-.23.2-.51.36-.84.47-.33.11-.73.16-1.18.16h-.57v2.2c0 .04-.01.07-.03.1-.02.03-.06.05-.11.07-.05.02-.12.03-.21.04a2.96 2.96 0 01-.68 0 .868.868 0 01-.21-.04c-.05-.02-.09-.04-.11-.07a.169.169 0 01-.03-.1v-6.21c0-.17.04-.29.13-.38.09-.08.2-.13.34-.13h1.61a4.592 4.592 0 01.99.1c.2.04.41.12.62.23.21.11.39.25.54.42.15.17.26.37.34.59.06.23.1.48.1.76zm-1.46.1c0-.24-.04-.44-.13-.6-.09-.16-.19-.27-.31-.35s-.25-.12-.39-.14c-.14-.02-.28-.03-.42-.03h-.59v2.34h.62c.22 0 .41-.03.56-.09a.97.97 0 00.59-.64c.05-.15.07-.31.07-.49zm7.04-1.62c0 .1 0 .19-.01.26s-.02.13-.04.18c-.02.04-.04.08-.07.1s-.05.03-.09.03h-1.71v5.56c0 .04-.01.07-.03.1-.02.03-.06.05-.11.07-.05.02-.12.03-.21.04a2.96 2.96 0 01-.68 0 .868.868 0 01-.21-.04c-.05-.02-.09-.04-.11-.07a.169.169 0 01-.03-.1v-5.56h-1.71a.14.14 0 01-.09-.03c-.03-.02-.05-.05-.06-.1a.604.604 0 01-.04-.18c-.01-.07-.01-.16-.01-.26 0-.11 0-.2.01-.27s.02-.13.04-.18c.02-.04.04-.08.06-.1.02-.02.05-.03.09-.03h4.82c.03 0 .06.01.09.03.03.02.05.05.07.1.02.04.03.1.04.18-.01.07-.01.16-.01.27zm4.87 5.78c0 .1-.01.19-.01.26-.01.07-.02.13-.04.17-.02.04-.04.07-.07.09a.14.14 0 01-.09.03h-3.44a.41.41 0 01-.29-.1c-.08-.07-.12-.18-.12-.34v-6.02c0-.16.04-.27.12-.34.08-.07.18-.1.29-.1h3.42c.03 0 .06.01.08.03.02.02.05.05.06.09s.03.1.04.17c.01.07.01.16.01.26s0 .18-.01.25-.02.13-.04.17-.04.07-.06.09c-.03.02-.05.03-.08.03h-2.44v1.68h2.07c.03 0 .06.01.09.03.03.02.05.05.06.09.02.04.03.1.04.17.01.07.01.15.01.25s0 .19-.01.25a.53.53 0 01-.04.16c-.02.04-.04.07-.06.09-.03.02-.06.03-.09.03h-2.07v1.95h2.46c.03 0 .06.01.09.03.03.02.05.05.07.09.02.04.03.1.04.17 0 .08.01.17.01.27zm6.41.37c0 .03-.01.07-.03.09-.02.03-.06.05-.11.07-.05.02-.12.03-.21.04-.09.01-.2.01-.33.01-.14 0-.25 0-.34-.01a.868.868 0 01-.21-.04c-.05-.02-.09-.04-.11-.07a.161.161 0 01-.03-.09v-5.57H56.1c-.1.81-.2 1.52-.3 2.13-.1.61-.21 1.13-.33 1.56-.12.44-.24.79-.38 1.07s-.3.5-.48.66c-.18.16-.38.27-.6.33-.22.06-.48.09-.76.09a.59.59 0 01-.14-.02.142.142 0 01-.09-.08.503.503 0 01-.05-.16 1.87 1.87 0 01-.02-.27c0-.15 0-.28.01-.37.01-.09.02-.17.04-.22.02-.05.04-.08.07-.1.03-.02.06-.03.1-.03a.693.693 0 00.6-.33c.09-.13.18-.31.27-.55.09-.24.17-.55.25-.94.08-.39.16-.86.25-1.42.08-.56.17-1.23.25-2 .02-.18.06-.31.13-.38a.36.36 0 01.28-.11h3.36c.13 0 .22.04.29.11.07.07.1.18.1.33v6.27zm6.53-2.11c0 .33-.05.63-.14.9-.1.27-.25.51-.47.72-.22.2-.5.37-.85.49s-.83.18-1.43.18h-1.71a.88.88 0 01-.17-.02c-.05-.02-.1-.04-.14-.08a.339.339 0 01-.09-.14.562.562 0 01-.03-.2v-6.28c0-.04.01-.07.03-.09.02-.03.06-.05.12-.07.05-.02.13-.03.22-.04.09-.01.2-.01.33-.01.14 0 .25.01.34.01.09.01.16.02.21.04.05.02.09.04.11.07.02.03.03.06.03.09v2.35h.96c.52 0 .93.05 1.24.14.31.09.57.22.78.4.21.18.38.4.49.66.11.25.17.55.17.88zm-1.43.12c0-.17-.02-.33-.07-.47a.927.927 0 00-.62-.56c-.16-.05-.4-.08-.71-.08h-.81v2.19h.83c.33 0 .58-.03.74-.1a.97.97 0 00.38-.25c.09-.11.16-.22.2-.35.05-.13.06-.26.06-.38zm12.81 1.98c0 .04-.01.07-.03.1-.02.03-.05.05-.11.07s-.12.03-.2.04a2.584 2.584 0 01-.64 0c-.08-.01-.15-.02-.2-.04s-.08-.04-.11-.07a.169.169 0 01-.03-.1v-5.62h-.01l-1.98 5.61c-.01.05-.04.08-.07.11-.03.03-.07.05-.13.07-.05.02-.13.03-.21.03-.08.01-.19.01-.31.01s-.22 0-.31-.01c-.08-.01-.15-.02-.21-.04-.05-.02-.1-.04-.13-.07a.207.207 0 01-.06-.1l-1.91-5.61h-.01v5.62c0 .04-.01.07-.03.1-.02.03-.06.05-.11.07s-.12.03-.2.04a2.584 2.584 0 01-.64 0c-.08-.01-.15-.02-.2-.04s-.09-.04-.11-.07a.169.169 0 01-.03-.1v-6.15c0-.18.05-.32.14-.42.1-.1.22-.14.38-.14h.91c.16 0 .3.01.42.04s.22.07.3.13c.08.06.15.14.21.24.06.1.11.23.15.38l1.48 4.11h.02l1.53-4.1c.05-.15.1-.28.15-.38a.722.722 0 01.45-.39c.1-.03.21-.04.34-.04h.94c.1 0 .18.01.24.04.07.02.13.06.17.11.04.05.08.11.1.18.02.07.04.15.04.24v6.15zm7.09-.34c.04.13.07.23.08.3s0 .13-.04.17c-.04.04-.11.06-.21.07-.1.01-.24.01-.41.01-.18 0-.32 0-.42-.01-.1-.01-.18-.02-.23-.03-.05-.02-.09-.04-.11-.07a.37.37 0 01-.05-.11l-.46-1.39h-2.57l-.43 1.35a.31.31 0 01-.06.13c-.02.03-.06.06-.11.08-.05.02-.12.03-.22.04-.09.01-.22.01-.37.01-.16 0-.29-.01-.38-.02s-.15-.04-.19-.08c-.04-.04-.05-.1-.04-.17.01-.07.04-.17.08-.3l2.11-6.12c.02-.06.05-.11.07-.15.03-.04.07-.06.14-.08.06-.02.15-.03.26-.04.11 0 .25-.01.43-.01.21 0 .37 0 .5.01.12.01.22.02.29.04.07.02.12.05.15.09.03.04.05.09.08.16l2.11 6.12zm-3.14-5.06l-.97 2.93h1.94l-.97-2.93zm8.52 4.54c0 .09 0 .16-.01.23-.01.06-.01.11-.02.16-.01.04-.03.08-.04.11-.02.03-.05.07-.08.11-.04.04-.11.09-.22.16-.11.06-.25.12-.41.18a3.553 3.553 0 01-1.22.21c-.47 0-.89-.07-1.27-.22s-.7-.36-.96-.65a2.95 2.95 0 01-.61-1.09c-.14-.43-.21-.94-.21-1.51 0-.59.08-1.11.23-1.56.15-.46.37-.84.65-1.15s.61-.54 1-.7a3.368 3.368 0 011.84-.19c.18.03.34.07.49.13.15.05.28.11.4.18.12.07.2.12.25.17.05.05.08.09.1.12.02.03.03.07.04.12.01.05.02.11.02.18.01.07.01.15.01.25 0 .11 0 .2-.01.27s-.02.13-.04.18c-.02.05-.04.08-.06.1-.03.02-.05.03-.08.03-.05 0-.12-.03-.2-.09s-.19-.13-.32-.21a2.85 2.85 0 00-.46-.21c-.18-.06-.39-.09-.64-.09-.27 0-.51.06-.73.17-.21.11-.39.27-.54.48-.15.21-.26.46-.34.75-.08.3-.12.63-.12 1 0 .41.04.76.12 1.05.08.3.2.54.35.73.15.19.34.33.55.43.22.09.46.14.73.14.25 0 .46-.03.64-.09s.33-.12.46-.19.24-.13.32-.19c.08-.06.15-.08.19-.08.04 0 .06.01.09.02.02.01.04.04.05.09.01.04.02.1.03.18.03.06.03.16.03.29zm5.55-5.28c0 .1 0 .19-.01.26s-.02.13-.04.18c-.02.04-.04.08-.06.1-.03.02-.06.03-.09.03h-1.71v5.56c0 .04-.01.07-.04.1-.02.03-.06.05-.11.07-.05.02-.12.03-.21.04a2.96 2.96 0 01-.67 0 .868.868 0 01-.21-.04c-.05-.02-.09-.04-.11-.07-.02-.03-.04-.06-.04-.1v-5.56h-1.71c-.04 0-.07-.01-.09-.03-.03-.02-.05-.05-.06-.1a.604.604 0 01-.04-.18c-.01-.07-.01-.16-.01-.26 0-.11.01-.2.01-.27.01-.07.02-.13.04-.18.02-.04.04-.08.06-.1.02-.02.05-.03.09-.03h4.82c.03 0 .06.01.09.03.03.02.05.05.06.1.02.04.03.1.04.18v.27zm4.86 5.78c0 .1-.01.19-.01.26-.01.07-.02.13-.04.17s-.04.07-.07.09a.14.14 0 01-.09.03h-3.44a.41.41 0 01-.29-.1c-.08-.07-.12-.18-.12-.34v-6.02c0-.16.04-.27.12-.34.08-.07.18-.1.29-.1h3.42c.03 0 .06.01.08.03.02.02.05.05.06.09.02.04.03.1.04.17.01.07.01.16.01.26s0 .18-.01.25-.02.13-.04.17c-.02.04-.04.07-.06.09-.03.02-.05.03-.08.03h-2.44v1.68h2.07c.03 0 .06.01.09.03.03.02.05.05.06.09.02.04.03.1.04.17.01.07.01.15.01.25s0 .19-.01.25a.53.53 0 01-.04.16c-.02.04-.04.07-.06.09-.03.02-.06.03-.09.03h-2.07v1.95h2.46c.03 0 .06.01.09.03.03.02.05.05.07.09.02.04.03.1.04.17.01.08.01.17.01.27zm5.92-4.26c0 .39-.06.73-.18 1.03-.12.3-.29.55-.52.76-.23.2-.51.36-.84.47-.33.11-.72.16-1.18.16h-.57v2.2c0 .04-.01.07-.03.1-.02.03-.06.05-.11.07-.05.02-.12.03-.21.04a2.96 2.96 0 01-.67 0 1.09 1.09 0 01-.22-.04c-.05-.02-.09-.04-.11-.07a.169.169 0 01-.03-.1v-6.21c0-.17.04-.29.13-.38.09-.08.2-.13.34-.13h1.61a4.592 4.592 0 01.99.1c.2.04.41.12.62.23.21.11.39.25.54.42.15.17.26.37.34.59.06.23.1.48.1.76zm-1.46.1c0-.24-.04-.44-.13-.6a.891.891 0 00-.7-.49c-.14-.02-.28-.03-.42-.03h-.59v2.34h.62c.22 0 .41-.03.56-.09a.97.97 0 00.59-.64c.05-.15.07-.31.07-.49zm8.69 1.18c0 .57-.07 1.08-.21 1.54-.14.45-.35.83-.63 1.15-.28.31-.62.55-1.03.72-.41.16-.89.25-1.42.25-.53 0-1-.07-1.39-.21-.4-.14-.73-.36-.99-.64-.26-.29-.46-.65-.6-1.1-.13-.45-.2-.97-.2-1.58 0-.56.07-1.06.21-1.51.14-.45.35-.83.63-1.14.28-.31.62-.55 1.03-.72.41-.17.89-.25 1.43-.25.52 0 .98.07 1.37.21.4.14.73.35 1 .64.26.29.47.65.6 1.09.13.43.2.95.2 1.55zm-1.46.07c0-.36-.03-.69-.08-.99-.06-.3-.15-.55-.29-.76a1.41 1.41 0 00-.54-.49c-.23-.12-.51-.17-.84-.17-.34 0-.63.07-.86.19-.23.13-.41.3-.55.52-.14.22-.24.47-.3.76-.06.29-.09.6-.09.92 0 .38.03.72.08 1.02s.15.56.29.77c.13.21.31.38.54.49.23.11.51.17.85.17.34 0 .63-.06.86-.19.23-.13.41-.3.55-.52.14-.22.24-.48.3-.77.05-.31.08-.62.08-.95zm7.58 1.39c0 .25-.04.47-.1.67-.07.2-.16.38-.28.53-.12.15-.26.28-.42.4-.16.11-.34.2-.54.27s-.41.12-.63.16c-.22.03-.47.05-.75.05h-1.82a.41.41 0 01-.29-.1c-.08-.07-.12-.18-.12-.34v-6.02c0-.16.04-.27.12-.34.08-.07.18-.1.29-.1h1.72c.42 0 .78.04 1.07.11.29.07.54.18.73.32.2.14.35.33.46.55.11.22.16.48.16.78 0 .17-.02.32-.06.47a1.323 1.323 0 01-.48.72c-.12.09-.25.17-.4.22.19.04.37.1.54.19.16.09.31.2.43.35.12.14.22.3.29.49.04.17.08.38.08.62zm-1.8-2.91c0-.14-.02-.26-.06-.37a.58.58 0 00-.19-.27.882.882 0 00-.32-.17c-.13-.04-.3-.06-.52-.06h-.7v1.79h.78c.2 0 .36-.02.48-.07s.22-.11.3-.2c.08-.08.14-.18.18-.29.03-.12.05-.23.05-.36zm.36 2.96c0-.16-.03-.3-.08-.43a.821.821 0 00-.23-.32c-.1-.09-.23-.15-.39-.2s-.36-.07-.62-.07h-.82v1.96h1c.19 0 .36-.02.49-.06.13-.04.25-.1.34-.18.1-.08.17-.18.23-.3.05-.12.08-.25.08-.4z"/></svg>