<svg width="69" height="28" fill="none" xmlns="http://www.w3.org/2000/svg"><path d="M16.548 4.74l-.386-.51-.122-.155-.106.155-.386.56-14.01 20.205.941 1.139L16.086 6.507 27.36 21.418h1.79L16.946 5.27l-.398-.529z" fill="#1E1E1E"/><path d="M16.548 8.815l-.386-.51-.122-.156-.106.156-.386.56L3.07 26.855l.941 1.139h10.35l.907-1.512H5.058l.485-.697H15.69l.906-1.511H6.59l.526-.753h9.935l.907-1.512H8.162l7.923-11.427 8.199 10.836h1.789L16.946 9.344l-.398-.53z" fill="#1E1E1E"/><path d="M67.21 21.418H69L53.715 1.194l-.398-.528-.386-.51L52.808 0l-.11.156-.387.56-.356.522-6.953 10.022-7.613-10.066-.398-.528-.386-.51L36.488 0l-.111.156-.386.56-9.286 13.387-9.76-12.909-.397-.528-.386-.51L16.04 0l-.106.156-.386.56L0 23.135l.941 1.138L16.086 2.432l14.356 18.986h1.79l-1.673-2.22 5.976-8.616 8.192 10.836h1.79L37.389 9.344l-.398-.53-.386-.51-.117-.155-.111.156-.386.56-6.338 9.138-.568-.753 7.45-10.743 11.274 14.911h1.79L37.388 5.27l-.398-.529-.386-.51-.117-.155-.111.155-.386.56-7.812 11.266-.573-.759 8.929-12.865 14.35 18.986h1.795l-3.83-5.063 4.005-5.773 8.193 10.836h1.789L53.715 9.344l-.398-.53-.386-.51-.123-.155-.11.156-.387.56-.356.522-4.006 5.773-.573-.752 5.48-7.901 11.273 14.911h1.79L53.714 5.27l-.398-.529-.386-.51-.123-.155-.11.155-.387.56-.356.523-5.48 7.9-.572-.759 6.952-10.022L67.21 21.419zM20.724 27.59c.024.081.041.144.047.187.006.044 0 .08-.023.106-.024.025-.064.037-.123.043-.058.007-.134.007-.24.007-.105 0-.187 0-.245-.007a1.525 1.525 0 01-.135-.018c-.03-.013-.053-.025-.064-.044a.235.235 0 01-.03-.068l-.268-.865H18.14l-.252.84a.198.198 0 01-.035.08.143.143 0 01-.064.05.487.487 0 01-.129.025c-.052.007-.128.007-.216.007-.094 0-.17-.007-.222-.013a.172.172 0 01-.111-.05c-.024-.024-.03-.062-.024-.105a1.51 1.51 0 01.047-.187l1.234-3.807c.012-.037.03-.069.04-.093.018-.025.042-.038.077-.05a.712.712 0 01.152-.025c.064 0 .146-.006.251-.006.123 0 .217 0 .293.006.07.006.128.012.17.025a.16.16 0 01.087.056c.017.025.03.056.047.1l1.24 3.806zm-1.836-3.147l-.567 1.822h1.134l-.567-1.822zm5.134.485c0 .242-.035.454-.105.64a1.26 1.26 0 01-.304.473 1.408 1.408 0 01-.491.293 2.09 2.09 0 01-.69.1h-.334V27.8a.11.11 0 01-.017.062c-.012.019-.035.031-.064.044a.483.483 0 01-.123.025 1.632 1.632 0 01-.398 0 .483.483 0 01-.123-.025c-.029-.013-.052-.025-.064-.044a.11.11 0 01-.017-.062v-3.863c0-.106.023-.18.076-.237a.28.28 0 01.198-.08h.942c.194-.002.388.019.579.062a1.297 1.297 0 01.678.404c.088.106.152.23.199.367.035.143.058.299.058.473zm-.853.062a.794.794 0 00-.076-.373.517.517 0 00-.41-.305 1.638 1.638 0 00-.245-.019h-.345v1.456h.362c.129 0 .24-.019.328-.056a.567.567 0 00.216-.155.615.615 0 00.129-.243c.029-.093.04-.193.04-.305zm4.116-1.008c0 .063 0 .118-.006.162a.53.53 0 01-.023.112c-.012.025-.023.05-.04.062a.079.079 0 01-.054.019h-1v3.459a.11.11 0 01-.017.062c-.012.019-.035.031-.064.044a.487.487 0 01-.123.024 1.633 1.633 0 01-.398 0 .485.485 0 01-.123-.024c-.029-.013-.052-.025-.064-.044a.11.11 0 01-.017-.062v-3.46h-1a.079.079 0 01-.053-.018c-.017-.012-.03-.03-.035-.062a.396.396 0 01-.023-.112c-.006-.044-.006-.1-.006-.162 0-.068 0-.124.006-.168a.53.53 0 01.023-.112c.012-.024.023-.05.035-.062.012-.012.03-.018.053-.018h2.818c.018 0 .035.006.053.018a.124.124 0 01.04.062.398.398 0 01.024.112c-.006.044-.006.1-.006.168zm2.848 3.596c0 .062-.006.118-.006.162a.396.396 0 01-.023.105.135.135 0 01-.041.056.079.079 0 01-.053.02h-2.011a.23.23 0 01-.17-.063c-.047-.044-.07-.112-.07-.212v-3.744c0-.1.023-.168.07-.212a.24.24 0 01.17-.062h2c.017 0 .034.006.046.018.012.013.03.032.035.056.006.025.018.063.024.106.006.044.006.1.006.162s0 .112-.006.155a.396.396 0 01-.024.106.22.22 0 01-.035.056c-.017.013-.029.019-.047.019h-1.426v1.045h1.21a.09.09 0 01.053.019.09.09 0 01.035.056.396.396 0 01.023.105c.006.044.006.094.006.156s0 .118-.006.155a.35.35 0 01-.023.1.22.22 0 01-.035.056.09.09 0 01-.053.019h-1.21v1.213h1.438a.09.09 0 01.053.018.135.135 0 01.04.056.395.395 0 01.024.106c0 .05.006.106.006.168zm3.748.23c0 .019-.006.044-.017.056-.012.019-.035.031-.065.044a.482.482 0 01-.123.025c-.052.006-.116.006-.192.006-.082 0-.147 0-.2-.006a.484.484 0 01-.122-.025c-.03-.013-.053-.025-.064-.044a.104.104 0 01-.018-.056v-3.465h-.86c-.058.504-.117.946-.175 1.325-.058.38-.123.703-.193.97-.07.274-.14.492-.222.666a1.345 1.345 0 01-.28.41.852.852 0 01-.352.206c-.128.037-.28.056-.444.056a.325.325 0 01-.082-.012.082.082 0 01-.031-.019.088.088 0 01-.021-.031.33.33 0 01-.03-.1 1.242 1.242 0 01-.011-.168c0-.093 0-.174.005-.23a.634.634 0 01.024-.137c.012-.03.023-.05.04-.062a.094.094 0 01.06-.018c.07 0 .139-.018.2-.054a.417.417 0 00.15-.152c.053-.08.105-.193.158-.342.052-.15.1-.342.146-.585.047-.242.094-.535.146-.883.047-.348.1-.765.146-1.244.012-.112.036-.193.076-.237a.21.21 0 01.075-.053.198.198 0 01.09-.015h1.964a.22.22 0 01.17.068c.04.044.058.112.058.206v3.9h-.006zm3.819-1.312c0 .205-.03.392-.082.56a1.175 1.175 0 01-.275.447c-.129.125-.292.23-.497.305-.205.075-.486.112-.836.112h-1a.484.484 0 01-.1-.012c-.029-.013-.058-.025-.081-.05a.212.212 0 01-.053-.087.371.371 0 01-.018-.125V23.74c0-.025.006-.044.018-.056.011-.019.035-.031.07-.044a.536.536 0 01.129-.025c.052-.006.117-.006.193-.006.081 0 .146.006.198.006a.482.482 0 01.123.025c.03.013.053.025.065.044a.105.105 0 01.017.056v1.46h.561c.304 0 .544.03.725.087.182.056.334.137.457.248.122.112.222.25.286.411.065.156.1.342.1.548zm-.837.074a.924.924 0 00-.04-.292.579.579 0 00-.143-.22.534.534 0 00-.22-.128 1.387 1.387 0 00-.415-.05h-.474v1.362h.485c.193 0 .34-.019.433-.062a.565.565 0 00.34-.373.685.685 0 00.034-.237zm7.491 1.232a.11.11 0 01-.018.062c-.011.019-.029.031-.064.044a.56.56 0 01-.117.025c-.124.016-.25.016-.374 0a.486.486 0 01-.117-.025.174.174 0 01-.064-.044.11.11 0 01-.018-.062v-3.496h-.006l-1.158 3.49a.132.132 0 01-.04.068.182.182 0 01-.077.044.345.345 0 01-.122.018c-.047.007-.111.007-.182.007-.07 0-.128 0-.18-.007a.63.63 0 01-.124-.024c-.029-.013-.058-.025-.076-.044a.13.13 0 01-.035-.062l-1.117-3.49h-.005V27.8a.11.11 0 01-.018.062c-.012.019-.035.031-.064.044a.487.487 0 01-.117.025 1.42 1.42 0 01-.374 0 .486.486 0 01-.117-.025c-.03-.013-.053-.025-.065-.044a.11.11 0 01-.017-.062v-3.826a.39.39 0 01.082-.261.281.281 0 01.222-.087h.532c.093 0 .175.006.245.025a.47.47 0 01.176.08.505.505 0 01.123.15.971.971 0 01.087.236l.866 2.557h.011l.895-2.55c.03-.094.059-.175.088-.237a.448.448 0 01.107-.152.415.415 0 01.156-.09.65.65 0 01.199-.026h.55a.31.31 0 01.14.025.197.197 0 01.1.069.335.335 0 01.058.112.566.566 0 01.023.15V27.8h.006zm4.146-.212c.023.081.04.144.047.187.005.044 0 .08-.024.106-.023.025-.064.037-.123.043-.058.007-.14.007-.24.007-.105 0-.187 0-.245-.007a1.522 1.522 0 01-.134-.018c-.03-.013-.053-.025-.065-.044a.235.235 0 01-.029-.068l-.269-.865h-1.503l-.251.84a.198.198 0 01-.035.08.143.143 0 01-.065.05.486.486 0 01-.128.025c-.053.007-.129.007-.217.007a1.93 1.93 0 01-.222-.013.174.174 0 01-.11-.05c-.024-.024-.03-.062-.024-.105a1.51 1.51 0 01.046-.187l1.234-3.807c.012-.037.03-.069.041-.093.018-.025.041-.038.082-.05a.712.712 0 01.152-.025c.064 0 .146-.006.252-.006.122 0 .216 0 .292.006.07.006.129.012.17.025a.16.16 0 01.087.056c.018.025.03.056.047.1L48.5 27.59zm-1.836-3.147l-.567 1.822h1.134l-.567-1.822zm4.982 2.824c0 .056 0 .1-.006.143-.006.037-.006.069-.012.1-.006.024-.017.05-.023.068l-.047.068a.822.822 0 01-.129.1 1.966 1.966 0 01-.953.243c-.275 0-.52-.044-.742-.137a1.448 1.448 0 01-.562-.405 1.868 1.868 0 01-.356-.678 3.24 3.24 0 01-.123-.94c0-.366.047-.69.134-.97.088-.286.217-.522.38-.715a1.58 1.58 0 01.585-.435 1.86 1.86 0 011.076-.119c.105.02.199.044.287.081a1.228 1.228 0 01.38.218.48.48 0 01.058.075.217.217 0 01.023.074.588.588 0 01.012.112c.006.044.006.094.006.156 0 .068 0 .124-.006.168a.524.524 0 01-.023.112.182.182 0 01-.035.062c-.018.012-.03.019-.047.019-.03 0-.07-.019-.117-.056a1.62 1.62 0 00-.456-.261 1.112 1.112 0 00-.374-.057.891.891 0 00-.427.106.922.922 0 00-.316.299 1.51 1.51 0 00-.199.466 2.54 2.54 0 00-.07.622c0 .255.023.473.07.654.047.186.117.335.205.454a.903.903 0 00.322.267c.128.056.269.087.426.087.147 0 .27-.018.375-.056a1.649 1.649 0 00.456-.236.197.197 0 01.11-.05c.024 0 .036.006.053.013.012.006.024.024.03.056.005.024.011.062.017.111.018.038.018.1.018.18zm3.245-3.285c0 .063 0 .118-.006.162a.524.524 0 01-.023.112.275.275 0 01-.035.062.091.091 0 01-.053.019h-1v3.459a.082.082 0 01-.023.062c-.012.019-.035.031-.065.044a.486.486 0 01-.122.024c-.13.016-.262.016-.392 0a.484.484 0 01-.123-.024c-.03-.013-.053-.025-.064-.044a.114.114 0 01-.024-.062v-3.46h-1c-.023 0-.04-.005-.052-.018-.018-.012-.03-.03-.035-.062a.4.4 0 01-.024-.112c-.005-.044-.005-.1-.005-.162 0-.068.005-.124.005-.168a.529.529 0 01.024-.112c.012-.024.023-.05.035-.062.012-.012.03-.018.053-.018h2.818a.09.09 0 01.053.018.094.094 0 01.035.062.398.398 0 01.023.112v.168zm2.842 3.596c0 .062-.006.118-.006.162a.396.396 0 01-.023.105.135.135 0 01-.041.056.079.079 0 01-.053.02h-2.011a.23.23 0 01-.17-.063c-.047-.044-.07-.112-.07-.212v-3.744c0-.1.023-.168.07-.212a.24.24 0 01.17-.062h2c.017 0 .035.006.046.018.012.013.03.032.035.056a.396.396 0 01.024.106c.006.044.006.1.006.162s0 .112-.006.155a.396.396 0 01-.024.106.22.22 0 01-.035.056c-.017.013-.029.019-.047.019h-1.426v1.045h1.21a.09.09 0 01.053.019.09.09 0 01.035.056.396.396 0 01.023.105c.006.044.006.094.006.156s0 .118-.006.155a.35.35 0 01-.023.1.22.22 0 01-.035.056.09.09 0 01-.053.019h-1.21v1.213h1.438a.09.09 0 01.053.018.135.135 0 01.04.056.395.395 0 01.024.106c.006.05.006.106.006.168zm3.462-2.65c0 .242-.035.454-.106.64a1.26 1.26 0 01-.304.473 1.408 1.408 0 01-.49.293c-.194.068-.422.1-.69.1h-.334V27.8a.11.11 0 01-.018.062c-.011.019-.035.031-.064.044a.483.483 0 01-.123.025c-.13.015-.261.015-.392 0a.603.603 0 01-.128-.025c-.03-.013-.053-.025-.065-.044a.11.11 0 01-.017-.062v-3.863c0-.106.023-.18.076-.237a.28.28 0 01.199-.08h.941a2.52 2.52 0 01.58.062c.116.025.239.074.362.143a1.09 1.09 0 01.515.628c.034.143.058.299.058.473zm-.854.062a.794.794 0 00-.076-.373.547.547 0 00-.168-.208.504.504 0 00-.241-.097 1.639 1.639 0 00-.246-.019h-.345v1.456h.362a.85.85 0 00.328-.056.567.567 0 00.217-.155.615.615 0 00.128-.243.984.984 0 00.04-.305zm5.081.734c0 .355-.04.672-.122.958-.082.28-.205.517-.369.716a1.653 1.653 0 01-.602.448c-.24.099-.52.155-.83.155-.31 0-.585-.044-.813-.13a1.415 1.415 0 01-.58-.399 1.843 1.843 0 01-.35-.684 3.743 3.743 0 01-.117-.983c0-.348.041-.66.123-.94.082-.28.204-.516.368-.709.164-.192.363-.342.602-.447.24-.106.52-.156.837-.156.304 0 .573.044.8.13.235.088.428.219.586.399.152.18.274.404.35.678.076.267.117.59.117.964zm-.853.044c0-.224-.018-.43-.047-.616a1.343 1.343 0 00-.17-.473.844.844 0 00-.316-.305.998.998 0 00-.49-.106 1.03 1.03 0 00-.504.119.918.918 0 00-.321.323 1.47 1.47 0 00-.176.473c-.035.18-.052.373-.052.572 0 .237.017.448.047.635.029.186.087.348.17.479.075.13.18.236.315.305.134.068.298.105.497.105a.966.966 0 00.503-.118.917.917 0 00.321-.323 1.48 1.48 0 00.176-.48 3.78 3.78 0 00.047-.59zM69 26.63c0 .156-.023.293-.058.417a1.134 1.134 0 01-.41.579 1.299 1.299 0 01-.316.168c-.116.043-.24.074-.368.1a3.043 3.043 0 01-.439.03h-1.064a.231.231 0 01-.17-.062c-.046-.043-.07-.112-.07-.211v-3.745c0-.1.024-.168.07-.212a.24.24 0 01.17-.062h1.006c.246 0 .456.025.626.068.17.044.316.112.427.2a.89.89 0 01.269.342c.064.137.093.298.093.485 0 .106-.012.199-.035.292a.827.827 0 01-.515.585c.112.025.217.062.316.118a.854.854 0 01.252.218c.07.087.128.187.17.305.023.106.046.236.046.385zm-1.052-1.81a.7.7 0 00-.036-.23.362.362 0 00-.11-.168.507.507 0 00-.188-.106.997.997 0 00-.304-.037h-.41v1.113h.457c.117 0 .21-.012.28-.043a.498.498 0 00.28-.305.934.934 0 00.03-.224zm.21 1.841a.778.778 0 00-.047-.267.511.511 0 00-.134-.199.588.588 0 00-.228-.125 1.167 1.167 0 00-.363-.043h-.48v1.22h.585a.95.95 0 00.287-.038.53.53 0 00.333-.299.67.67 0 00.047-.248z" fill="#1E1E1E"/></svg>